0
SECTION
2
HEADER
0
ENDSEC
0
SECTION
2
TABLES
0
ENDSEC
0
SECTION
2
BLOCKS
0
ENDSEC
0
SECTION
2
ENTITIES
0
TEXT
8
0
10
0.000
20
47.000
30
0
40
1.000
1
Mo-XL Hat v1.0
0
LINE
8
0
10
0.000
20
45.500
30
0
11
20.000
21
45.500
31
0
0
LINE
8
0
10
0.000
20
44.400
30
0
11
20.000
21
44.400
31
0
0
LINE
8
0
10
0.000
20
43.300
30
0
11
20.000
21
43.300
31
0
0
LINE
8
0
10
0.000
20
42.200
30
0
11
20.000
21
42.200
31
0
0
LINE
8
0
10
0.000
20
41.100
30
0
11
20.000
21
41.100
31
0
0
LINE
8
0
10
0.000
20
40.000
30
0
11
20.000
21
40.000
31
0
0
LINE
8
0
10
0.000
20
38.900
30
0
11
20.000
21
38.900
31
0
0
LINE
8
0
10
0.000
20
37.800
30
0
11
20.000
21
37.800
31
0
0
LINE
8
0
10
0.000
20
36.700
30
0
11
20.000
21
36.700
31
0
0
LINE
8
0
10
0.000
20
35.600
30
0
11
20.000
21
35.600
31
0
0
LINE
8
0
10
0.000
20
34.500
30
0
11
20.000
21
34.500
31
0
0
LINE
8
0
10
0.000
20
33.400
30
0
11
20.000
21
33.400
31
0
0
LINE
8
0
10
0.000
20
32.300
30
0
11
20.000
21
32.300
31
0
0
LINE
8
0
10
0.000
20
31.200
30
0
11
20.000
21
31.200
31
0
0
LINE
8
0
10
0.000
20
30.100
30
0
11
20.000
21
30.100
31
0
0
LINE
8
0
10
0.000
20
29.000
30
0
11
20.000
21
29.000
31
0
0
LINE
8
0
10
0.000
20
27.900
30
0
11
20.000
21
27.900
31
0
0
LINE
8
0
10
0.000
20
26.800
30
0
11
20.000
21
26.800
31
0
0
LINE
8
0
10
0.000
20
25.700
30
0
11
20.000
21
25.700
31
0
0
LINE
8
0
10
0.000
20
24.600
30
0
11
20.000
21
24.600
31
0
0
LINE
8
0
10
0.000
20
23.500
30
0
11
20.000
21
23.500
31
0
0
LINE
8
0
10
0.000
20
22.400
30
0
11
20.000
21
22.400
31
0
0
LINE
8
0
10
0.000
20
21.300
30
0
11
20.000
21
21.300
31
0
0
LINE
8
0
10
0.000
20
20.200
30
0
11
20.000
21
20.200
31
0
0
LINE
8
0
10
0.000
20
19.100
30
0
11
20.000
21
19.100
31
0
0
LINE
8
0
10
0.000
20
18.000
30
0
11
20.000
21
18.000
31
0
0
LINE
8
0
10
0.000
20
44.600
30
0
11
20.000
21
44.600
31
0
0
LINE
8
0
10
0.000
20
45.500
30
0
11
0.000
21
18.000
31
0
0
LINE
8
0
10
5.000
20
45.500
30
0
11
5.000
21
18.000
31
0
0
LINE
8
0
10
15.000
20
45.500
30
0
11
15.000
21
18.000
31
0
0
LINE
8
0
10
20.000
20
45.500
30
0
11
20.000
21
18.000
31
0
0
TEXT
8
0
10
0.500
20
44.600
30
0
40
0.700
1
GPIO
0
TEXT
8
0
10
5.500
20
44.600
30
0
40
0.700
1
FUNCTION
0
TEXT
8
0
10
15.500
20
44.600
30
0
40
0.700
1
J#
0
TEXT
8
0
10
0.500
20
43.500
30
0
40
0.700
1
2
0
TEXT
8
0
10
5.500
20
43.500
30
0
40
0.700
1
SDA (I2C)
0
TEXT
8
0
10
0.500
20
42.400
30
0
40
0.700
1
3
0
TEXT
8
0
10
5.500
20
42.400
30
0
40
0.700
1
SCL (I2C)
0
TEXT
8
0
10
0.500
20
41.300
30
0
40
0.700
1
4
0
TEXT
8
0
10
5.500
20
41.300
30
0
40
0.700
1
RPM TACH
0
TEXT
8
0
10
15.500
20
41.300
30
0
40
0.700
1
J8
0
TEXT
8
0
10
0.500
20
40.200
30
0
40
0.700
1
5
0
TEXT
8
0
10
5.500
20
40.200
30
0
40
0.700
1
RLY AUX
0
TEXT
8
0
10
15.500
20
40.200
30
0
40
0.700
1
J5
0
TEXT
8
0
10
0.500
20
39.100
30
0
40
0.700
1
6
0
TEXT
8
0
10
5.500
20
39.100
30
0
40
0.700
1
ENC LEFT
0
TEXT
8
0
10
15.500
20
39.100
30
0
40
0.700
1
J8
0
TEXT
8
0
10
0.500
20
38.000
30
0
40
0.700
1
7
0
TEXT
8
0
10
5.500
20
38.000
30
0
40
0.700
1
CS1 (TC)
0
TEXT
8
0
10
15.500
20
38.000
30
0
40
0.700
1
J9
0
TEXT
8
0
10
0.500
20
36.900
30
0
40
0.700
1
8
0
TEXT
8
0
10
5.500
20
36.900
30
0
40
0.700
1
CS0 (CAN)
0
TEXT
8
0
10
15.500
20
36.900
30
0
40
0.700
1
J2
0
TEXT
8
0
10
0.500
20
35.800
30
0
40
0.700
1
9
0
TEXT
8
0
10
5.500
20
35.800
30
0
40
0.700
1
MISO
0
TEXT
8
0
10
0.500
20
34.700
30
0
40
0.700
1
10
0
TEXT
8
0
10
5.500
20
34.700
30
0
40
0.700
1
MOSI
0
TEXT
8
0
10
0.500
20
33.600
30
0
40
0.700
1
11
0
TEXT
8
0
10
5.500
20
33.600
30
0
40
0.700
1
SCLK
0
TEXT
8
0
10
0.500
20
32.500
30
0
40
0.700
1
12
0
TEXT
8
0
10
5.500
20
32.500
30
0
40
0.700
1
L_RPWM
0
TEXT
8
0
10
15.500
20
32.500
30
0
40
0.700
1
J3
0
TEXT
8
0
10
0.500
20
31.400
30
0
40
0.700
1
13
0
TEXT
8
0
10
5.500
20
31.400
30
0
40
0.700
1
R_RPWM
0
TEXT
8
0
10
15.500
20
31.400
30
0
40
0.700
1
J4
0
TEXT
8
0
10
0.500
20
30.300
30
0
40
0.700
1
16
0
TEXT
8
0
10
5.500
20
30.300
30
0
40
0.700
1
L_LPWM
0
TEXT
8
0
10
15.500
20
30.300
30
0
40
0.700
1
J3
0
TEXT
8
0
10
0.500
20
29.200
30
0
40
0.700
1
17
0
TEXT
8
0
10
5.500
20
29.200
30
0
40
0.700
1
RLY RUN
0
TEXT
8
0
10
15.500
20
29.200
30
0
40
0.700
1
J5
0
TEXT
8
0
10
0.500
20
28.100
30
0
40
0.700
1
18
0
TEXT
8
0
10
5.500
20
28.100
30
0
40
0.700
1
(SPARE)
0
TEXT
8
0
10
0.500
20
27.000
30
0
40
0.700
1
19
0
TEXT
8
0
10
5.500
20
27.000
30
0
40
0.700
1
ENC RIGHT
0
TEXT
8
0
10
15.500
20
27.000
30
0
40
0.700
1
J8
0
TEXT
8
0
10
0.500
20
25.900
30
0
40
0.700
1
20
0
TEXT
8
0
10
5.500
20
25.900
30
0
40
0.700
1
L_REN
0
TEXT
8
0
10
15.500
20
25.900
30
0
40
0.700
1
J3
0
TEXT
8
0
10
0.500
20
24.800
30
0
40
0.700
1
21
0
TEXT
8
0
10
5.500
20
24.800
30
0
40
0.700
1
L_LEN
0
TEXT
8
0
10
15.500
20
24.800
30
0
40
0.700
1
J3
0
TEXT
8
0
10
0.500
20
23.700
30
0
40
0.700
1
22
0
TEXT
8
0
10
5.500
20
23.700
30
0
40
0.700
1
CAN INT
0
TEXT
8
0
10
0.500
20
22.600
30
0
40
0.700
1
23
0
TEXT
8
0
10
5.500
20
22.600
30
0
40
0.700
1
R_REN
0
TEXT
8
0
10
15.500
20
22.600
30
0
40
0.700
1
J4
0
TEXT
8
0
10
0.500
20
21.500
30
0
40
0.700
1
24
0
TEXT
8
0
10
5.500
20
21.500
30
0
40
0.700
1
R_LEN
0
TEXT
8
0
10
15.500
20
21.500
30
0
40
0.700
1
J4
0
TEXT
8
0
10
0.500
20
20.400
30
0
40
0.700
1
25
0
TEXT
8
0
10
5.500
20
20.400
30
0
40
0.700
1
RLY BLADE
0
TEXT
8
0
10
15.500
20
20.400
30
0
40
0.700
1
J5
0
TEXT
8
0
10
0.500
20
19.300
30
0
40
0.700
1
26
0
TEXT
8
0
10
5.500
20
19.300
30
0
40
0.700
1
R_LPWM
0
TEXT
8
0
10
15.500
20
19.300
30
0
40
0.700
1
J4
0
TEXT
8
0
10
0.500
20
18.200
30
0
40
0.700
1
27
0
TEXT
8
0
10
5.500
20
18.200
30
0
40
0.700
1
RLY START
0
TEXT
8
0
10
15.500
20
18.200
30
0
40
0.700
1
J5
0
LINE
8
0
10
0.000
20
16.500
30
0
11
20.000
21
16.500
31
0
0
LINE
8
0
10
0.000
20
15.400
30
0
11
20.000
21
15.400
31
0
0
LINE
8
0
10
0.000
20
14.300
30
0
11
20.000
21
14.300
31
0
0
LINE
8
0
10
0.000
20
13.200
30
0
11
20.000
21
13.200
31
0
0
LINE
8
0
10
0.000
20
12.100
30
0
11
20.000
21
12.100
31
0
0
LINE
8
0
10
0.000
20
11.000
30
0
11
20.000
21
11.000
31
0
0
LINE
8
0
10
0.000
20
9.900
30
0
11
20.000
21
9.900
31
0
0
LINE
8
0
10
0.000
20
8.800
30
0
11
20.000
21
8.800
31
0
0
LINE
8
0
10
0.000
20
7.700
30
0
11
20.000
21
7.700
31
0
0
LINE
8
0
10
0.000
20
6.600
30
0
11
20.000
21
6.600
31
0
0
LINE
8
0
10
0.000
20
5.500
30
0
11
20.000
21
5.500
31
0
0
LINE
8
0
10
0.000
20
4.400
30
0
11
20.000
21
4.400
31
0
0
LINE
8
0
10
0.000
20
3.300
30
0
11
20.000
21
3.300
31
0
0
LINE
8
0
10
0.000
20
2.200
30
0
11
20.000
21
2.200
31
0
0
LINE
8
0
10
0.000
20
1.100
30
0
11
20.000
21
1.100
31
0
0
LINE
8
0
10
0.000
20
-0.000
30
0
11
20.000
21
-0.000
31
0
0
LINE
8
0
10
0.000
20
15.600
30
0
11
20.000
21
15.600
31
0
0
LINE
8
0
10
0.000
20
16.500
30
0
11
0.000
21
-0.000
31
0
0
LINE
8
0
10
5.000
20
16.500
30
0
11
5.000
21
-0.000
31
0
0
LINE
8
0
10
9.000
20
16.500
30
0
11
9.000
21
-0.000
31
0
0
LINE
8
0
10
20.000
20
16.500
30
0
11
20.000
21
-0.000
31
0
0
TEXT
8
0
10
0.500
20
15.600
30
0
40
0.700
1
CONN
0
TEXT
8
0
10
5.500
20
15.600
30
0
40
0.700
1
PIN
0
TEXT
8
0
10
9.500
20
15.600
30
0
40
0.700
1
SIGNAL
0
TEXT
8
0
10
0.500
20
14.500
30
0
40
0.700
1
J1  VH 2p
0
TEXT
8
0
10
5.500
20
14.500
30
0
40
0.700
1
1
0
TEXT
8
0
10
9.500
20
14.500
30
0
40
0.700
1
GND
0
TEXT
8
0
10
5.500
20
13.400
30
0
40
0.700
1
2
0
TEXT
8
0
10
9.500
20
13.400
30
0
40
0.700
1
+12V_RAW
0
TEXT
8
0
10
0.500
20
12.300
30
0
40
0.700
1
J2  XH 4p
0
TEXT
8
0
10
5.500
20
12.300
30
0
40
0.700
1
1
0
TEXT
8
0
10
9.500
20
12.300
30
0
40
0.700
1
CANH
0
TEXT
8
0
10
5.500
20
11.200
30
0
40
0.700
1
2
0
TEXT
8
0
10
9.500
20
11.200
30
0
40
0.700
1
CANL
0
TEXT
8
0
10
5.500
20
10.100
30
0
40
0.700
1
3
0
TEXT
8
0
10
9.500
20
10.100
30
0
40
0.700
1
CAN_12V
0
TEXT
8
0
10
5.500
20
9.000
30
0
40
0.700
1
4
0
TEXT
8
0
10
9.500
20
9.000
30
0
40
0.700
1
GND
0
TEXT
8
0
10
0.500
20
7.900
30
0
40
0.700
1
J3  IDC 2x4
0
TEXT
8
0
10
5.500
20
7.900
30
0
40
0.700
1
1
0
TEXT
8
0
10
9.500
20
7.900
30
0
40
0.700
1
L_RPWM
0
TEXT
8
0
10
5.500
20
6.800
30
0
40
0.700
1
2
0
TEXT
8
0
10
9.500
20
6.800
30
0
40
0.700
1
L_LPWM
0
TEXT
8
0
10
5.500
20
5.700
30
0
40
0.700
1
3
0
TEXT
8
0
10
9.500
20
5.700
30
0
40
0.700
1
L_REN
0
TEXT
8
0
10
5.500
20
4.600
30
0
40
0.700
1
4
0
TEXT
8
0
10
9.500
20
4.600
30
0
40
0.700
1
L_LEN
0
TEXT
8
0
10
5.500
20
3.500
30
0
40
0.700
1
5
0
TEXT
8
0
10
9.500
20
3.500
30
0
40
0.700
1
L_RIS
0
TEXT
8
0
10
5.500
20
2.400
30
0
40
0.700
1
6
0
TEXT
8
0
10
9.500
20
2.400
30
0
40
0.700
1
L_LIS
0
TEXT
8
0
10
5.500
20
1.300
30
0
40
0.700
1
7
0
TEXT
8
0
10
9.500
20
1.300
30
0
40
0.700
1
VCC
0
TEXT
8
0
10
5.500
20
0.200
30
0
40
0.700
1
8
0
TEXT
8
0
10
9.500
20
0.200
30
0
40
0.700
1
GND
0
LINE
8
0
10
0.000
20
13.400
30
0
11
20.000
21
13.400
31
0
0
LINE
8
0
10
0.000
20
9.000
30
0
11
20.000
21
9.000
31
0
0
LINE
8
0
10
23.000
20
45.500
30
0
11
43.000
21
45.500
31
0
0
LINE
8
0
10
23.000
20
44.400
30
0
11
43.000
21
44.400
31
0
0
LINE
8
0
10
23.000
20
43.300
30
0
11
43.000
21
43.300
31
0
0
LINE
8
0
10
23.000
20
42.200
30
0
11
43.000
21
42.200
31
0
0
LINE
8
0
10
23.000
20
41.100
30
0
11
43.000
21
41.100
31
0
0
LINE
8
0
10
23.000
20
40.000
30
0
11
43.000
21
40.000
31
0
0
LINE
8
0
10
23.000
20
38.900
30
0
11
43.000
21
38.900
31
0
0
LINE
8
0
10
23.000
20
37.800
30
0
11
43.000
21
37.800
31
0
0
LINE
8
0
10
23.000
20
36.700
30
0
11
43.000
21
36.700
31
0
0
LINE
8
0
10
23.000
20
35.600
30
0
11
43.000
21
35.600
31
0
0
LINE
8
0
10
23.000
20
34.500
30
0
11
43.000
21
34.500
31
0
0
LINE
8
0
10
23.000
20
33.400
30
0
11
43.000
21
33.400
31
0
0
LINE
8
0
10
23.000
20
32.300
30
0
11
43.000
21
32.300
31
0
0
LINE
8
0
10
23.000
20
31.200
30
0
11
43.000
21
31.200
31
0
0
LINE
8
0
10
23.000
20
30.100
30
0
11
43.000
21
30.100
31
0
0
LINE
8
0
10
23.000
20
29.000
30
0
11
43.000
21
29.000
31
0
0
LINE
8
0
10
23.000
20
27.900
30
0
11
43.000
21
27.900
31
0
0
LINE
8
0
10
23.000
20
26.800
30
0
11
43.000
21
26.800
31
0
0
LINE
8
0
10
23.000
20
25.700
30
0
11
43.000
21
25.700
31
0
0
LINE
8
0
10
23.000
20
24.600
30
0
11
43.000
21
24.600
31
0
0
LINE
8
0
10
23.000
20
23.500
30
0
11
43.000
21
23.500
31
0
0
LINE
8
0
10
23.000
20
22.400
30
0
11
43.000
21
22.400
31
0
0
LINE
8
0
10
23.000
20
21.300
30
0
11
43.000
21
21.300
31
0
0
LINE
8
0
10
23.000
20
20.200
30
0
11
43.000
21
20.200
31
0
0
LINE
8
0
10
23.000
20
19.100
30
0
11
43.000
21
19.100
31
0
0
LINE
8
0
10
23.000
20
18.000
30
0
11
43.000
21
18.000
31
0
0
LINE
8
0
10
23.000
20
16.900
30
0
11
43.000
21
16.900
31
0
0
LINE
8
0
10
23.000
20
15.800
30
0
11
43.000
21
15.800
31
0
0
LINE
8
0
10
23.000
20
14.700
30
0
11
43.000
21
14.700
31
0
0
LINE
8
0
10
23.000
20
13.600
30
0
11
43.000
21
13.600
31
0
0
LINE
8
0
10
23.000
20
12.500
30
0
11
43.000
21
12.500
31
0
0
LINE
8
0
10
23.000
20
11.400
30
0
11
43.000
21
11.400
31
0
0
LINE
8
0
10
23.000
20
10.300
30
0
11
43.000
21
10.300
31
0
0
LINE
8
0
10
23.000
20
9.200
30
0
11
43.000
21
9.200
31
0
0
LINE
8
0
10
23.000
20
8.100
30
0
11
43.000
21
8.100
31
0
0
LINE
8
0
10
23.000
20
7.000
30
0
11
43.000
21
7.000
31
0
0
LINE
8
0
10
23.000
20
5.900
30
0
11
43.000
21
5.900
31
0
0
LINE
8
0
10
23.000
20
4.800
30
0
11
43.000
21
4.800
31
0
0
LINE
8
0
10
23.000
20
3.700
30
0
11
43.000
21
3.700
31
0
0
LINE
8
0
10
23.000
20
2.600
30
0
11
43.000
21
2.600
31
0
0
LINE
8
0
10
23.000
20
1.500
30
0
11
43.000
21
1.500
31
0
0
LINE
8
0
10
23.000
20
44.600
30
0
11
43.000
21
44.600
31
0
0
LINE
8
0
10
23.000
20
45.500
30
0
11
23.000
21
1.500
31
0
0
LINE
8
0
10
28.000
20
45.500
30
0
11
28.000
21
1.500
31
0
0
LINE
8
0
10
32.000
20
45.500
30
0
11
32.000
21
1.500
31
0
0
LINE
8
0
10
43.000
20
45.500
30
0
11
43.000
21
1.500
31
0
0
TEXT
8
0
10
23.500
20
44.600
30
0
40
0.700
1
CONN
0
TEXT
8
0
10
28.500
20
44.600
30
0
40
0.700
1
PIN
0
TEXT
8
0
10
32.500
20
44.600
30
0
40
0.700
1
SIGNAL
0
TEXT
8
0
10
23.500
20
43.500
30
0
40
0.700
1
J4  IDC 2x4
0
TEXT
8
0
10
28.500
20
43.500
30
0
40
0.700
1
1
0
TEXT
8
0
10
32.500
20
43.500
30
0
40
0.700
1
R_RPWM
0
TEXT
8
0
10
28.500
20
42.400
30
0
40
0.700
1
2
0
TEXT
8
0
10
32.500
20
42.400
30
0
40
0.700
1
R_LPWM
0
TEXT
8
0
10
28.500
20
41.300
30
0
40
0.700
1
3
0
TEXT
8
0
10
32.500
20
41.300
30
0
40
0.700
1
R_REN
0
TEXT
8
0
10
28.500
20
40.200
30
0
40
0.700
1
4
0
TEXT
8
0
10
32.500
20
40.200
30
0
40
0.700
1
R_LEN
0
TEXT
8
0
10
28.500
20
39.100
30
0
40
0.700
1
5
0
TEXT
8
0
10
32.500
20
39.100
30
0
40
0.700
1
R_RIS
0
TEXT
8
0
10
28.500
20
38.000
30
0
40
0.700
1
6
0
TEXT
8
0
10
32.500
20
38.000
30
0
40
0.700
1
R_LIS
0
TEXT
8
0
10
28.500
20
36.900
30
0
40
0.700
1
7
0
TEXT
8
0
10
32.500
20
36.900
30
0
40
0.700
1
VCC
0
TEXT
8
0
10
28.500
20
35.800
30
0
40
0.700
1
8
0
TEXT
8
0
10
32.500
20
35.800
30
0
40
0.700
1
GND
0
TEXT
8
0
10
23.500
20
34.700
30
0
40
0.700
1
J5  XH 5p
0
TEXT
8
0
10
28.500
20
34.700
30
0
40
0.700
1
1
0
TEXT
8
0
10
32.500
20
34.700
30
0
40
0.700
1
RLY_RUN
0
TEXT
8
0
10
28.500
20
33.600
30
0
40
0.700
1
2
0
TEXT
8
0
10
32.500
20
33.600
30
0
40
0.700
1
RLY_START
0
TEXT
8
0
10
28.500
20
32.500
30
0
40
0.700
1
3
0
TEXT
8
0
10
32.500
20
32.500
30
0
40
0.700
1
RLY_BLADE
0
TEXT
8
0
10
28.500
20
31.400
30
0
40
0.700
1
4
0
TEXT
8
0
10
32.500
20
31.400
30
0
40
0.700
1
RLY_AUX
0
TEXT
8
0
10
28.500
20
30.300
30
0
40
0.700
1
5
0
TEXT
8
0
10
32.500
20
30.300
30
0
40
0.700
1
GND
0
TEXT
8
0
10
23.500
20
29.200
30
0
40
0.700
1
J6  XH 8p
0
TEXT
8
0
10
28.500
20
29.200
30
0
40
0.700
1
1
0
TEXT
8
0
10
32.500
20
29.200
30
0
40
0.700
1
CHKTHRTL
0
TEXT
8
0
10
28.500
20
28.100
30
0
40
0.700
1
2
0
TEXT
8
0
10
32.500
20
28.100
30
0
40
0.700
1
SERVO1
0
TEXT
8
0
10
28.500
20
27.000
30
0
40
0.700
1
3
0
TEXT
8
0
10
32.500
20
27.000
30
0
40
0.700
1
SERVO2
0
TEXT
8
0
10
28.500
20
25.900
30
0
40
0.700
1
4
0
TEXT
8
0
10
32.500
20
25.900
30
0
40
0.700
1
SERVO3
0
TEXT
8
0
10
28.500
20
24.800
30
0
40
0.700
1
5
0
TEXT
8
0
10
32.500
20
24.800
30
0
40
0.700
1
6V
0
TEXT
8
0
10
28.500
20
23.700
30
0
40
0.700
1
6
0
TEXT
8
0
10
32.500
20
23.700
30
0
40
0.700
1
6V
0
TEXT
8
0
10
28.500
20
22.600
30
0
40
0.700
1
7
0
TEXT
8
0
10
32.500
20
22.600
30
0
40
0.700
1
GND
0
TEXT
8
0
10
28.500
20
21.500
30
0
40
0.700
1
8
0
TEXT
8
0
10
32.500
20
21.500
30
0
40
0.700
1
GND
0
TEXT
8
0
10
23.500
20
20.400
30
0
40
0.700
1
J7  PH 5p
0
TEXT
8
0
10
28.500
20
20.400
30
0
40
0.700
1
1
0
TEXT
8
0
10
32.500
20
20.400
30
0
40
0.700
1
BATT_V
0
TEXT
8
0
10
28.500
20
19.300
30
0
40
0.700
1
2
0
TEXT
8
0
10
32.500
20
19.300
30
0
40
0.700
1
ALT_I
0
TEXT
8
0
10
28.500
20
18.200
30
0
40
0.700
1
3
0
TEXT
8
0
10
32.500
20
18.200
30
0
40
0.700
1
FUEL
0
TEXT
8
0
10
28.500
20
17.100
30
0
40
0.700
1
4
0
TEXT
8
0
10
32.500
20
17.100
30
0
40
0.700
1
PACK_V
0
TEXT
8
0
10
28.500
20
16.000
30
0
40
0.700
1
5
0
TEXT
8
0
10
32.500
20
16.000
30
0
40
0.700
1
GND
0
TEXT
8
0
10
23.500
20
14.900
30
0
40
0.700
1
J8  PH 5p
0
TEXT
8
0
10
28.500
20
14.900
30
0
40
0.700
1
1
0
TEXT
8
0
10
32.500
20
14.900
30
0
40
0.700
1
RPM_SIG
0
TEXT
8
0
10
28.500
20
13.800
30
0
40
0.700
1
2
0
TEXT
8
0
10
32.500
20
13.800
30
0
40
0.700
1
ENC_L
0
TEXT
8
0
10
28.500
20
12.700
30
0
40
0.700
1
3
0
TEXT
8
0
10
32.500
20
12.700
30
0
40
0.700
1
ENC_R
0
TEXT
8
0
10
28.500
20
11.600
30
0
40
0.700
1
4
0
TEXT
8
0
10
32.500
20
11.600
30
0
40
0.700
1
5V
0
TEXT
8
0
10
28.500
20
10.500
30
0
40
0.700
1
5
0
TEXT
8
0
10
32.500
20
10.500
30
0
40
0.700
1
GND
0
TEXT
8
0
10
23.500
20
9.400
30
0
40
0.700
1
J9  XH 2p
0
TEXT
8
0
10
28.500
20
9.400
30
0
40
0.700
1
1
0
TEXT
8
0
10
32.500
20
9.400
30
0
40
0.700
1
TC+
0
TEXT
8
0
10
28.500
20
8.300
30
0
40
0.700
1
2
0
TEXT
8
0
10
32.500
20
8.300
30
0
40
0.700
1
TC-
0
TEXT
8
0
10
23.500
20
7.200
30
0
40
0.700
1
J11 PH 3p
0
TEXT
8
0
10
28.500
20
7.200
30
0
40
0.700
1
1
0
TEXT
8
0
10
32.500
20
7.200
30
0
40
0.700
1
RS232_TX
0
TEXT
8
0
10
28.500
20
6.100
30
0
40
0.700
1
2
0
TEXT
8
0
10
32.500
20
6.100
30
0
40
0.700
1
RS232_RX
0
TEXT
8
0
10
28.500
20
5.000
30
0
40
0.700
1
3
0
TEXT
8
0
10
32.500
20
5.000
30
0
40
0.700
1
GND
0
TEXT
8
0
10
23.500
20
3.900
30
0
40
0.700
1
J12 PH 3p
0
TEXT
8
0
10
28.500
20
3.900
30
0
40
0.700
1
1
0
TEXT
8
0
10
32.500
20
3.900
30
0
40
0.700
1
SBUS_IN
0
TEXT
8
0
10
28.500
20
2.800
30
0
40
0.700
1
2
0
TEXT
8
0
10
32.500
20
2.800
30
0
40
0.700
1
5V
0
TEXT
8
0
10
28.500
20
1.700
30
0
40
0.700
1
3
0
TEXT
8
0
10
32.500
20
1.700
30
0
40
0.700
1
GND
0
LINE
8
0
10
23.000
20
35.800
30
0
11
43.000
21
35.800
31
0
0
LINE
8
0
10
23.000
20
30.300
30
0
11
43.000
21
30.300
31
0
0
LINE
8
0
10
23.000
20
21.500
30
0
11
43.000
21
21.500
31
0
0
LINE
8
0
10
23.000
20
16.000
30
0
11
43.000
21
16.000
31
0
0
LINE
8
0
10
23.000
20
10.500
30
0
11
43.000
21
10.500
31
0
0
LINE
8
0
10
23.000
20
8.300
30
0
11
43.000
21
8.300
31
0
0
LINE
8
0
10
23.000
20
5.000
30
0
11
43.000
21
5.000
31
0
0
ENDSEC
0
EOF
